<?xml version="1.0" standalone="no"?>
<!DOCTYPE svg PUBLIC "-//W3C//DTD SVG 20010904//EN"
 "http://www.w3.org/TR/2001/REC-SVG-20010904/DTD/svg10.dtd">
<svg version="1.0" xmlns="http://www.w3.org/2000/svg"
 width="1863.000000pt" height="1111.000000pt" viewBox="0 0 1863.000000 1111.000000"
 preserveAspectRatio="xMidYMid meet">

<g transform="translate(0.000000,1111.000000) scale(0.100000,-0.100000)"
fill="#033d6a" stroke="none">
<path d="M17247 11098 c12 -16 4 -100 -8 -92 -5 3 -9 -6 -9 -20 0 -18 -5 -26
-18 -26 -10 0 -29 -13 -44 -30 -14 -16 -35 -30 -46 -30 -11 0 -32 -10 -46 -21
l-28 -22 -41 40 c-48 45 -96 83 -107 83 -4 0 -25 -18 -48 -40 -37 -37 -45 -40
-94 -40 -47 0 -58 -4 -82 -29 -28 -29 -29 -29 -69 -15 -23 8 -48 21 -57 29
-32 29 -76 38 -107 22 -26 -14 -30 -13 -52 4 -29 24 -58 24 -65 1 -3 -9 -16
-22 -28 -27 -22 -10 -27 -28 -17 -65 3 -9 -4 -16 -19 -18 -23 -3 -83 46 -93
77 -4 12 -17 12 -85 1 -43 -7 -114 -12 -156 -11 -60 1 -89 -3 -128 -20 -36
-15 -59 -19 -85 -15 l-36 7 -31 -70 c-18 -42 -38 -73 -49 -76 -11 -4 -19 -14
-19 -23 0 -9 -14 -44 -30 -76 -17 -32 -30 -66 -30 -76 0 -19 53 -121 87 -166
13 -17 30 -52 39 -78 9 -25 20 -48 25 -52 18 -11 8 -129 -21 -256 -47 -205
-40 -232 47 -184 45 26 51 27 153 20 88 -5 111 -4 137 10 47 24 65 21 57 -9
-11 -44 21 -42 71 4 24 22 49 41 54 41 5 0 16 6 23 13 52 50 190 66 233 27 13
-13 47 -22 100 -29 44 -5 98 -17 121 -25 23 -8 72 -17 110 -21 57 -6 81 -15
140 -51 39 -24 92 -53 119 -64 45 -19 110 -72 220 -178 55 -53 125 -95 225
-133 67 -25 97 -44 142 -87 42 -39 63 -53 77 -49 15 4 34 -10 73 -52 41 -44
64 -60 101 -71 26 -7 56 -23 66 -36 15 -19 29 -24 62 -24 37 0 49 -6 85 -41
39 -38 47 -42 165 -65 124 -24 124 -24 138 -4 7 11 21 20 30 20 9 0 33 25 54
55 21 30 45 55 53 55 16 0 19 37 5 59 -6 10 -2 32 11 65 18 46 19 59 9 126 -9
59 -17 81 -40 105 -16 16 -34 40 -40 53 -7 12 -42 38 -79 57 -37 20 -58 33
-47 31 11 -3 34 -8 50 -11 67 -14 86 -28 112 -79 36 -73 51 -87 82 -80 25 6
61 38 61 55 0 4 -13 15 -29 25 -36 21 -61 63 -61 103 0 27 -4 32 -28 37 -22 5
-34 17 -50 52 -12 26 -26 54 -31 62 -5 8 -12 31 -16 51 -3 19 -13 44 -23 55
-45 52 -50 78 -25 122 16 28 16 31 -1 56 -11 18 -24 26 -39 24 -19 -3 -22 1
-19 28 3 33 -18 59 -53 66 -29 5 -30 33 -1 88 l25 48 -134 54 -135 53 0 63 c0
70 -19 92 -46 53 -8 -11 -22 -21 -30 -21 -18 0 -18 2 2 48 14 35 14 40 -12
105 -34 84 -57 90 -74 18 -11 -49 -12 -50 -38 -39 -44 19 -55 38 -37 65 9 13
13 28 10 33 -8 13 -48 13 -62 -1 -34 -34 -46 59 -13 101 11 14 20 32 20 40 0
8 9 21 20 28 25 15 26 42 3 42 -10 0 -31 9 -48 20 -21 14 -47 20 -87 20 -58 0
-58 0 -58 -30 0 -17 7 -47 15 -67 18 -42 18 -56 5 -105 -7 -24 -18 -39 -33
-44 -12 -4 -27 -14 -33 -23 -10 -13 -14 -13 -28 -2 -22 19 -20 41 14 138 19
55 27 90 21 100 -7 12 -12 10 -30 -16 -13 -18 -31 -31 -44 -31 -14 0 -30 -13
-45 -36 l-23 -36 -24 34 c-13 18 -30 40 -38 48 -20 21 -15 66 7 62 10 -2 16 4
16 18 0 13 -7 20 -20 20 -24 0 -26 19 -5 46 8 10 15 29 15 42 0 20 -5 22 -46
22 -36 0 -44 -3 -37 -12z m1050 -1504 c-3 -3 -12 -4 -19 -1 -8 3 -5 6 6 6 11
1 17 -2 13 -5z"/>
<path d="M11705 10040 c-81 -39 -132 -80 -162 -130 -21 -37 -58 -56 -121 -65
-50 -7 -52 -6 -50 17 5 43 -34 34 -128 -31 -96 -67 -124 -75 -124 -37 0 14 5
28 10 31 6 3 10 13 10 22 0 16 -34 15 -88 -2 -22 -7 -23 -5 -20 21 2 20 -2 30
-14 32 -27 5 -188 -83 -268 -147 -66 -53 -80 -61 -118 -61 -38 0 -48 5 -81 40
-20 22 -45 40 -54 40 -9 0 -34 -24 -56 -52 -39 -53 -85 -88 -114 -88 -8 0 -25
-9 -38 -19 -17 -14 -29 -17 -46 -10 -36 13 -69 -5 -127 -71 -63 -70 -87 -88
-136 -100 -38 -9 -57 -21 -83 -53 -27 -33 -49 -47 -103 -65 -59 -20 -76 -22
-114 -13 -38 9 -47 8 -57 -6 -7 -9 -13 -23 -13 -31 0 -10 -6 -12 -22 -7 -13 3
-30 6 -38 6 -8 0 -36 -1 -61 -1 -50 0 -59 -11 -59 -73 0 -19 -7 -30 -22 -36
-12 -4 -27 -23 -33 -41 -6 -19 -23 -43 -38 -54 -26 -19 -27 -19 -61 -1 -44 24
-51 20 -189 -92 -126 -104 -130 -109 -123 -154 9 -54 -13 -67 -53 -34 -48 41
-74 22 -120 -87 -40 -95 -67 -130 -112 -149 -25 -10 -32 -9 -48 5 -18 17 -21
15 -52 -31 -18 -26 -65 -84 -104 -128 -39 -44 -82 -99 -95 -122 -26 -48 -175
-174 -234 -198 -29 -12 -55 -14 -107 -9 l-68 7 -37 -41 c-20 -23 -49 -44 -64
-47 -28 -6 -89 -63 -109 -103 -7 -12 -26 -28 -44 -36 -18 -7 -41 -25 -50 -40
-32 -49 -91 -96 -169 -136 -77 -40 -124 -80 -186 -158 -43 -55 -153 -112 -215
-112 -40 0 -49 -5 -94 -53 -28 -29 -54 -63 -57 -75 -4 -12 -13 -22 -20 -22 -6
0 -22 -20 -34 -45 l-21 -44 25 -30 c21 -26 24 -36 18 -83 l-6 -53 70 -69 c67
-65 72 -68 111 -64 23 2 41 0 41 -5 0 -4 -29 -22 -65 -38 -61 -29 -85 -55 -70
-79 10 -16 37 -11 62 11 19 19 25 20 39 8 9 -7 24 -14 33 -14 11 0 15 -8 14
-27 -1 -22 4 -29 22 -34 34 -9 77 21 97 67 13 31 22 39 42 39 27 0 30 -7 26
-64 -2 -29 -1 -29 42 -22 28 5 54 17 73 36 47 45 74 40 110 -21 19 -33 43 -58
68 -71 48 -24 43 -41 -13 -49 -43 -6 -70 -28 -70 -58 0 -8 10 -35 21 -59 l22
-44 49 4 50 5 -7 -31 c-4 -17 -7 -40 -6 -51 0 -11 1 -41 1 -67 l1 -46 28 15
c26 16 29 15 74 -16 59 -40 125 -70 156 -71 21 0 23 4 19 32 -6 35 24 139 66
231 14 32 26 75 26 97 0 26 6 42 17 48 16 9 16 12 -1 37 -16 25 -17 28 -1 45
24 26 183 78 222 73 43 -7 75 20 109 89 15 32 36 60 46 64 10 3 43 -8 78 -27
54 -28 63 -31 76 -18 12 13 11 19 -10 48 -21 28 -23 37 -14 57 30 64 215 49
307 -25 25 -20 70 -62 100 -93 37 -38 69 -60 94 -67 67 -17 126 -75 169 -167
21 -45 38 -84 38 -87 0 -3 -18 -27 -40 -52 -22 -25 -40 -53 -40 -60 0 -8 -16
-30 -35 -50 l-35 -35 40 -77 c22 -43 52 -98 65 -122 30 -53 31 -80 5 -163 -11
-34 -20 -78 -20 -95 0 -73 79 -189 173 -253 21 -14 40 -33 43 -43 3 -9 21 -29
40 -43 19 -15 34 -32 34 -40 0 -22 30 -32 69 -23 45 10 67 4 109 -32 18 -16
38 -29 45 -29 7 0 37 12 67 26 45 22 73 27 150 31 52 2 107 4 121 5 15 0 66
-19 114 -43 l87 -44 15 23 c28 40 74 52 176 46 64 -5 102 -12 123 -25 36 -22
113 -109 137 -155 15 -29 14 -32 -9 -73 -20 -32 -24 -49 -18 -74 3 -18 12 -35
18 -39 16 -11 70 -10 82 2 6 6 26 -5 57 -32 46 -38 48 -43 44 -81 -4 -31 0
-43 15 -56 55 -45 117 -114 128 -143 22 -56 49 -78 93 -78 33 0 46 6 75 37 73
78 182 206 178 210 -2 2 5 14 15 26 75 90 82 96 149 122 62 24 70 30 70 53 0
39 14 57 36 47 11 -4 46 -9 78 -11 51 -2 64 1 89 22 16 13 39 27 52 30 34 8
55 46 55 97 l0 45 60 4 c33 2 62 6 64 9 3 3 0 22 -6 42 -18 58 -8 58 68 2 9
-6 21 -2 39 15 20 19 24 30 20 52 -6 23 -2 29 17 37 18 7 34 32 63 103 22 51
49 107 62 124 33 45 46 86 34 115 -6 16 -5 31 1 43 9 17 11 16 33 -4 41 -39
55 -21 55 67 -1 113 23 246 60 338 18 44 32 91 32 104 1 29 29 79 84 148 23
28 45 60 48 71 4 10 27 34 52 51 25 18 57 51 71 73 28 41 112 105 174 131 48
20 63 42 65 95 3 66 28 92 92 92 36 0 54 5 67 20 24 26 13 48 -26 52 -30 3
-34 7 -48 57 -13 49 -13 61 1 116 9 34 35 100 57 148 45 98 57 105 132 66 58
-29 81 -23 92 26 4 22 6 58 2 80 -3 26 -1 47 8 59 12 17 14 17 50 0 20 -10 40
-14 44 -11 3 4 2 48 -3 99 -7 70 -6 97 3 116 17 32 16 48 -4 82 -13 23 -15 37
-7 67 8 32 17 42 59 63 39 20 51 31 53 52 4 29 -7 35 -78 40 -47 4 -51 33 -14
110 39 81 30 94 -60 89 -59 -3 -69 0 -96 23 -17 14 -48 30 -70 36 -21 6 -50
24 -64 40 -28 34 -63 50 -107 50 -42 0 -96 25 -103 48 -7 21 -102 99 -151 125
-23 11 -36 13 -50 5 -36 -19 -45 -41 -45 -104 0 -79 -26 -115 -103 -140 -29
-9 -97 -48 -152 -85 -65 -44 -110 -69 -128 -69 -15 0 -46 -9 -69 -21 -27 -14
-49 -18 -67 -14 -36 9 -191 82 -211 99 -8 8 -62 35 -120 61 -114 51 -215 117
-268 174 -44 47 -124 207 -146 293 -17 65 -17 70 0 124 16 51 46 94 65 94 4 0
20 -13 36 -30 31 -33 55 -37 93 -15 14 8 44 14 68 15 54 0 83 19 122 79 16 27
39 56 50 66 26 24 26 55 0 55 -10 0 -24 10 -31 21 -19 35 4 92 56 137 48 42
54 56 29 66 -42 16 -66 5 -127 -57 -49 -49 -74 -66 -118 -80 -31 -9 -62 -24
-69 -32 -15 -18 -43 -19 -70 -3 -16 10 -25 8 -62 -18 -26 -19 -61 -33 -88 -37
-40 -5 -49 -2 -81 26 -49 43 -92 150 -92 230 0 61 9 76 62 98 21 8 28 5 58
-31 19 -22 39 -40 44 -40 5 0 9 20 9 44 0 38 3 45 25 50 14 4 25 11 25 16 0 6
19 28 41 50 39 38 45 40 101 40 70 0 76 3 185 86 62 47 91 64 111 62 37 -3 49
6 57 41 3 16 17 39 31 51 51 49 15 58 -75 20 -39 -17 -79 -30 -90 -30 -22 0
-28 14 -11 25 17 11 -2 35 -29 35 -14 -1 -62 -18 -106 -40z"/>
<path d="M10456 3925 c-3 -8 -1 -26 4 -40 19 -49 -11 -72 -45 -35 -10 11 -27
20 -38 20 -17 0 -19 -5 -13 -41 10 -61 -14 -45 -37 25 -16 48 -22 57 -41 54
-26 -4 -35 -45 -11 -54 14 -6 12 -11 -11 -35 -37 -38 -28 -74 21 -83 38 -7 43
-19 20 -42 -29 -29 -18 -44 30 -44 39 0 45 -3 45 -21 0 -18 4 -20 28 -14 32 9
45 9 95 0 31 -6 37 -5 37 10 0 9 -8 30 -17 45 -15 27 -15 30 1 55 13 20 15 30
6 40 -19 23 -2 55 29 55 34 0 77 50 58 69 -6 6 -18 11 -27 11 -9 0 -33 9 -55
20 -47 24 -71 25 -79 5z"/>
<path d="M1924 3559 c-11 -6 -27 -29 -35 -51 -7 -23 -22 -46 -32 -52 -15 -9
-23 -6 -46 22 -33 38 -48 41 -57 7 -3 -14 -9 -25 -13 -26 -3 -1 -24 -2 -46 -3
-58 -4 -139 -45 -143 -74 -5 -33 -44 -45 -104 -32 -66 14 -63 15 -83 -29 -10
-23 -26 -42 -39 -45 -38 -10 -77 -6 -92 9 -14 13 -20 11 -54 -17 -22 -19 -44
-49 -51 -71 -10 -32 -16 -37 -33 -33 -12 3 -27 6 -34 6 -7 0 -18 11 -24 25 -6
14 -19 25 -29 25 -19 0 -93 -85 -104 -120 -5 -16 -15 -20 -46 -20 -33 0 -41
-4 -49 -25 -5 -13 -22 -31 -37 -39 -15 -8 -39 -26 -53 -41 -14 -15 -41 -35
-61 -45 -59 -31 -62 -39 -45 -120 8 -40 17 -74 20 -77 3 -3 -4 -19 -15 -34
-33 -47 -35 -93 -8 -149 20 -40 29 -49 54 -52 38 -4 39 -27 3 -48 -25 -13 -32
-13 -74 2 -43 15 -49 15 -88 -1 -77 -33 -176 -36 -176 -5 0 13 -14 19 -35 14
-5 -1 -22 -2 -37 -2 -22 1 -29 -6 -38 -34 -6 -19 -16 -34 -21 -34 -4 0 -15
-12 -23 -27 -18 -37 -7 -66 51 -124 39 -41 44 -51 39 -76 -4 -17 -22 -45 -41
-63 -27 -26 -37 -49 -55 -121 -24 -96 -21 -152 8 -168 11 -6 20 -31 27 -72 10
-61 11 -63 44 -70 22 -5 47 -23 75 -55 52 -58 67 -53 101 31 26 64 37 75 75
75 43 0 142 -27 158 -44 14 -13 14 -19 2 -41 -12 -23 -12 -28 0 -35 10 -6 22
-3 36 11 32 30 59 21 59 -19 0 -17 3 -32 7 -32 4 0 27 20 51 45 41 42 64 51
107 45 25 -3 50 -31 91 -101 29 -48 39 -76 39 -108 0 -84 42 -108 79 -46 26
45 62 47 101 5 15 -16 36 -30 45 -30 15 0 17 6 10 53 -5 28 -8 109 -8 179 0
120 2 131 29 185 16 31 45 72 64 91 30 29 40 33 72 29 26 -4 38 -1 42 10 10
24 7 63 -4 63 -13 0 -13 27 0 35 22 13 48 -7 65 -50 15 -41 32 -55 47 -39 4 3
2 20 -3 37 -18 63 9 86 50 43 15 -15 29 -22 40 -18 9 3 45 36 79 74 35 37 75
71 88 74 15 4 35 26 55 60 34 59 32 58 60 44 32 -18 59 4 59 48 1 20 7 48 15
62 8 14 14 52 15 85 0 67 19 105 51 105 10 0 28 11 40 24 15 18 32 24 67 25
26 1 52 3 57 3 6 0 22 -3 38 -7 l27 -7 0 61 c0 58 3 65 49 129 53 73 114 115
125 86 4 -9 15 -14 28 -12 19 2 24 10 26 47 4 47 -17 81 -49 81 -10 0 -25 12
-33 28 -8 15 -33 45 -55 67 -39 37 -41 42 -41 97 l0 58 46 11 c33 9 48 18 55
36 12 32 12 33 -7 33 -12 0 -15 6 -11 22 4 15 -3 33 -23 58 -26 33 -36 38 -86
44 -41 5 -71 2 -111 -11 l-56 -18 -16 24 c-9 12 -31 40 -48 61 -18 20 -33 46
-33 58 0 12 -9 22 -22 26 -35 9 -120 6 -144 -5z"/>
<path d="M2646 2973 c-11 -29 31 -82 66 -83 23 0 29 13 22 48 -5 25 -13 32
-44 40 -31 8 -40 7 -44 -5z"/>
<path d="M32 1647 c-36 -37 -38 -43 -17 -51 28 -10 65 15 65 45 0 41 -13 42
-48 6z"/>
<path d="M1689 1173 c-19 -22 -16 -105 4 -137 19 -28 57 -35 57 -11 0 9 -7 29
-14 44 -8 15 -12 38 -9 49 6 26 -4 72 -16 72 -5 0 -15 -7 -22 -17z"/>
<path d="M1415 728 c-15 -52 -29 -81 -52 -105 -37 -37 -36 -33 -23 -67 11 -29
0 -41 -30 -31 -14 4 -20 15 -20 34 0 34 -17 51 -51 51 -20 0 -36 -12 -67 -53
l-40 -54 19 -79 c23 -100 23 -118 1 -135 -17 -13 -18 -24 -9 -151 l10 -138 79
0 c78 0 81 1 112 34 36 39 80 98 106 142 19 32 90 74 127 74 12 0 75 -28 140
-62 84 -43 137 -79 186 -125 l67 -63 158 0 157 0 33 35 c37 41 38 45 16 111
-22 64 -97 138 -132 129 -14 -3 -55 -30 -93 -60 -37 -30 -77 -55 -87 -55 -33
0 -186 92 -250 151 -55 50 -62 60 -63 95 0 21 -8 64 -17 94 l-18 55 -45 1
c-40 1 -50 6 -82 40 -21 23 -49 72 -68 122 -17 45 -35 82 -38 82 -4 0 -16 -32
-26 -72z"/>
</g>
</svg>
