<?xml version="1.0" encoding="UTF-8" standalone="no"?>
<!-- Created with Inkscape (http://www.inkscape.org/) -->
<svg
   xmlns:dc="http://purl.org/dc/elements/1.1/"
   xmlns:cc="http://web.resource.org/cc/"
   xmlns:rdf="http://www.w3.org/1999/02/22-rdf-syntax-ns#"
   xmlns:svg="http://www.w3.org/2000/svg"
   xmlns="http://www.w3.org/2000/svg"
   xmlns:sodipodi="http://sodipodi.sourceforge.net/DTD/sodipodi-0.dtd"
   xmlns:inkscape="http://www.inkscape.org/namespaces/inkscape"
   id="svg2"
   sodipodi:version="0.32"
   inkscape:version="0.44.1"
   width="99.999954"
   height="219.98817"
   version="1.0"
   sodipodi:docbase="C:\Documents and Settings\Franklin\Meus documentos\Wiki"
   sodipodi:docname="judo.svg">
  <metadata
     id="metadata7">
    <rdf:RDF>
      <cc:Work
         rdf:about="">
        <dc:format>image/svg+xml</dc:format>
        <dc:type
           rdf:resource="http://purl.org/dc/dcmitype/StillImage" />
      </cc:Work>
    </rdf:RDF>
  </metadata>
  <defs
     id="defs5" />
  <sodipodi:namedview
     inkscape:window-height="718"
     inkscape:window-width="1021"
     inkscape:pageshadow="2"
     inkscape:pageopacity="0.0"
     guidetolerance="10.0"
     gridtolerance="10.0"
     objecttolerance="10.0"
     borderopacity="1.0"
     bordercolor="#666666"
     pagecolor="#ffffff"
     id="base"
     inkscape:zoom="4"
     inkscape:cx="63.194963"
     inkscape:cy="59.266787"
     inkscape:window-x="-4"
     inkscape:window-y="-4"
     inkscape:current-layer="svg2" />
  <g
     id="g1951"
     transform="matrix(0.984376,0,0,0.984376,-5.55748,16.85992)">
    <path
       style="fill:black;fill-opacity:1"
       d="M 71.680702,-17.116463 C 58.859042,-16.514287 45.967618,-15.23631 33.47545,-12.221656 C 31.981548,-6.8030625 41.153982,-2.0030542 46.192466,-1.4697443 C 49.855204,2.9857891 56.962589,10.283267 46.564059,10.932318 C 38.996665,13.759359 31.268452,16.208687 23.56659,18.566729 C 23.462234,22.431475 30.026238,23.694311 32.961948,26.071037 C 36.08203,25.221806 44.965032,18.083484 43.172617,24.209492 C 39.796024,31.596686 32.348521,36.412159 29.020157,43.60393 C 36.143739,43.191429 42.711256,37.385063 47.880277,32.448961 C 52.329897,28.790057 53.527649,22.432093 51.024343,18.261446 C 58.313055,14.129963 56.312421,28.808058 54.836772,32.251544 C 47.095605,31.277429 57.473286,41.555544 47.4932,39.82104 C 39.632803,41.492951 55.310502,44.636963 46.345874,45.727252 C 35.380674,48.827223 24.129997,50.951825 13.33695,54.63354 C 14.089573,59.44236 20.594688,61.034881 24.428201,63.564327 C 29.602066,60.382785 35.585377,56.958965 41.702061,55.089927 C 45.876241,52.950474 46.158024,54.336969 42.697243,56.988639 C 34.74123,65.187181 25.798211,72.324512 17.27445,79.88354 C 16.559962,83.756667 27.940022,77.821057 30.961932,75.938946 C 39.0989,70.704668 45.814605,63.676534 52.930698,57.196041 C 52.738698,64.919332 53.465262,72.759269 52.1807,80.38354 C 47.678347,78.978667 41.147357,77.326853 46.732317,83.557993 C 49.01558,88.277894 55.072702,97.517956 56.977576,87.263803 C 59.88678,78.744461 60.862081,69.746088 61.185912,60.818154 C 63.756752,57.543604 68.181041,67.33154 70.487682,69.588375 C 74.780683,80.032132 86.530336,82.46919 96.663891,82.196409 C 106.79336,82.346504 91.368796,75.755011 88.365601,73.794651 C 78.921343,68.073602 67.914373,63.405987 61.388706,54.148379 C 58.494315,48.497238 65.381427,49.334281 68.934503,49.383541 C 77.560879,49.531815 86.755641,48.27374 94.409003,53.215923 C 103.05231,56.546233 100.28659,40.726722 92.336813,42.831847 C 84.286898,38.124903 74.975013,42.352642 66.188848,41.977466 C 61.500368,43.654155 55.482292,43.070883 60.571531,37.218092 C 62.423164,29.652506 63.593989,20.84868 73.166372,20.508425 C 76.779413,16.237382 92.494222,18.429741 87.172894,10.628873 C 82.896281,6.9563884 80.374397,4.1535241 75.183534,7.2206926 C 71.145841,7.3732117 56.724287,9.0030386 64.7432,2.1335381 C 71.2452,-2.2273052 79.071918,-6.9608555 85.848656,-8.9414323 C 87.359394,-17.102534 77.146979,-17.308731 71.680702,-17.116463 z M 70.368202,-11.241462 C 68.484448,-8.0488161 64.083591,-4.5368981 61.02604,-1.2881176 C 58.880579,2.1031403 55.537599,-2.6766964 52.879692,-3.3967093 C 46.743657,-7.6919191 61.95592,-7.8756003 64.816276,-9.908552 C 66.65786,-10.387476 68.491835,-10.911534 70.368202,-11.241462 z M 71.055702,12.414788 C 79.37285,12.267971 57.169568,24.6255 64.464211,14.036373 C 66.396827,12.754796 68.797792,12.515941 71.055702,12.414788 z M 71.368202,95.352287 C 66.372523,99.376399 68.244402,110.00222 62.3682,115.25854 C 56.131236,120.6994 47.092713,120.714 39.531208,123.39109 C 33.198177,123.41271 30.222135,127.84766 36.193832,132.02465 C 40.420338,135.32497 45.531826,130.13667 49.947066,128.93459 C 52.804314,128.25169 49.502882,135.63236 50.025123,137.65885 C 51.116776,145.44072 39.517975,139.57762 43.81249,147.27525 C 45.35281,155.95369 42.938631,164.66649 43.343354,173.31381 C 44.87707,175.58926 44.316091,182.35982 48.076851,181.50985 C 54.658598,181.11978 61.276741,179.4053 67.83695,180.35229 C 66.251722,184.94346 72.942144,189.69249 75.105073,185.91711 C 75.260378,170.7021 75.772796,155.47188 77.709294,140.37448 C 76.961444,131.58165 65.650768,132.14251 60.32137,136.65696 C 58.925566,137.1331 52.645442,141.17277 56.130649,137.78828 C 62.802364,134.70252 55.92001,124.27979 64.886053,125.08315 C 72.242681,122.90625 79.95542,125.92906 87.061723,124.62346 C 91.734846,116.21814 79.626582,115.03382 73.826698,115.91479 C 71.935496,115.56456 64.856336,116.95089 69.36026,114.46004 C 73.779644,110.75173 80.553886,107.56915 80.683356,101.1808 C 78.681271,98.103429 75.169966,95.420702 71.368202,95.352287 z M 43.180698,100.35229 C 37.761632,101.14025 47.924987,108.70429 47.465866,112.83177 C 51.932091,122.12843 60.521825,112.49141 53.480479,106.69923 C 51.336707,102.83016 47.704748,100.21953 43.180698,100.35229 z M 18.14945,109.44604 C 11.949092,111.28988 18.445411,124.48689 25.288737,122.25433 C 31.841376,120.7541 22.687411,108.05489 18.14945,109.44604 z M 66.711952,140.72729 C 69.051136,145.94508 67.479587,152.75468 67.9307,158.62924 C 67.930701,163.48484 67.930702,168.34044 67.930702,173.19604 C 63.05795,172.17977 54.545335,177.62972 52.941629,172.77909 C 49.247052,162.78888 70.944847,171.07049 64.526573,161.1234 C 61.15305,157.16521 52.537947,166.26749 52.993208,160.9668 C 51.201273,151.99037 61.725946,155.59633 64.853885,150.66217 C 62.133618,141.28064 51.820112,157.47356 51.821507,146.27945 C 51.042825,140.09394 63.269245,143.09085 66.711952,140.72729 z M 11.3057,145.50854 C 9.1220681,147.91874 17.720721,152.72654 14.928389,157.8449 C 12.714533,166.4154 19.447119,172.73573 21.66956,179.48097 C 17.628519,181.77115 -0.3999903,177.83156 9.2314367,185.43542 C 15.521247,192.56729 25.17041,186.37436 33.062093,188.11758 C 40.318836,190.07549 45.807115,195.96756 52.933576,198.47884 C 59.930115,200.35319 66.900865,207.42223 74.189035,205.44823 C 84.724255,201.8746 95.445768,198.91511 106.35246,196.74639 C 102.26464,194.49127 90.001194,195.53922 82.810241,194.53953 C 65.605842,193.81166 49.856693,186.31564 33.952879,180.52521 C 28.955482,176.59983 22.051643,171.34509 21.219239,164.69919 C 26.061916,157.33011 26.353431,146.1134 14.967307,145.93171 C 13.765709,145.67867 12.540071,145.4552 11.3057,145.50854 z "
       id="path1957" />
  </g>
</svg>
