<?xml version="1.0" standalone="no"?>
<!DOCTYPE svg PUBLIC "-//W3C//DTD SVG 20010904//EN"
 "http://www.w3.org/TR/2001/REC-SVG-20010904/DTD/svg10.dtd">
<svg version="1.0" xmlns="http://www.w3.org/2000/svg"
 width="443.000000pt" height="1024.000000pt" viewBox="0 0 443.000000 1024.000000"
 preserveAspectRatio="xMidYMid meet">

<g transform="translate(0.000000,1024.000000) scale(0.100000,-0.100000)"
fill="#000000" stroke="none">
<path d="M1408 10178 c8 -31 15 -101 16 -168 1 -100 -2 -124 -23 -179 -94
-247 -469 -719 -1088 -1368 -91 -95 -159 -173 -151 -173 7 0 49 9 94 20 158
38 334 120 533 250 l112 73 22 -20 c45 -41 59 -44 169 -28 56 8 122 17 146 21
l42 5 21 -48 c29 -69 48 -155 55 -260 6 -75 4 -93 -7 -97 -8 -3 -108 -11 -224
-19 l-210 -15 -45 29 c-67 44 -133 61 -264 66 l-118 6 42 -54 c53 -68 104
-167 140 -279 27 -84 45 -186 70 -404 27 -228 96 -386 171 -386 73 0 166 60
194 126 11 27 19 32 60 37 72 10 105 8 105 -5 0 -25 -52 -227 -96 -373 -88
-291 -236 -644 -425 -1014 -60 -118 -108 -215 -106 -217 1 -1 43 18 92 43 237
118 450 328 623 615 52 86 106 197 195 400 l12 28 85 -102 c104 -126 240 -246
385 -343 135 -90 214 -127 283 -133 89 -8 122 24 122 119 0 108 -67 235 -187
356 -73 74 -94 88 -205 141 -67 33 -186 83 -263 112 -77 29 -142 55 -144 56
-2 2 12 66 33 141 20 76 42 157 47 179 l11 41 156 8 157 7 50 -55 c93 -103
170 -133 214 -85 94 100 261 592 261 768 0 76 -1 80 -38 127 -81 101 -194 187
-272 206 -15 4 -38 0 -54 -8 -15 -8 -46 -20 -69 -26 -54 -15 -289 -49 -297
-44 -4 3 -9 53 -12 113 -7 150 -41 219 -131 265 l-29 15 29 6 c15 3 102 12
193 21 216 20 291 33 313 53 17 15 20 13 50 -24 58 -71 152 -166 179 -180 53
-27 101 -16 124 28 43 82 36 237 -16 379 -49 135 -105 203 -266 325 -117 88
-347 184 -441 184 -18 0 -33 3 -33 6 0 3 25 38 56 77 68 87 102 153 111 212
18 136 -185 334 -466 456 -50 21 -95 39 -100 39 -4 0 -1 -24 7 -52z m317 -975
c99 -73 256 -207 323 -275 l43 -44 -60 4 c-43 3 -75 -1 -119 -17 -66 -22 -211
-44 -417 -61 -145 -12 -388 -27 -393 -25 -1 1 37 36 85 77 49 41 167 150 263
241 96 91 177 166 180 166 3 1 46 -29 95 -66z m378 -1200 c-21 -137 -83 -437
-91 -444 -8 -8 -184 -39 -222 -39 l-26 0 13 78 c16 91 39 283 48 399 l7 82 72
4 c39 1 103 4 142 5 l71 2 -14 -87z m-743 -15 c0 -110 -44 -495 -59 -509 -3
-4 -39 -9 -78 -13 l-73 -6 0 52 c0 116 -46 339 -90 443 l-18 43 76 11 c80 13
194 28 225 30 14 1 17 -8 17 -51z"/>
<path d="M3410 10044 c0 -2 25 -26 55 -55 83 -78 106 -133 116 -281 25 -372
53 -2806 35 -3031 -10 -108 -20 -122 -85 -113 -63 9 -221 88 -368 185 -68 44
-123 78 -123 76 0 -2 55 -98 122 -212 291 -498 538 -831 651 -878 49 -20 122
-19 159 2 74 44 128 203 147 428 6 77 13 626 16 1350 3 671 8 1299 10 1395 10
332 25 645 36 752 13 122 10 144 -28 189 -54 64 -195 109 -477 154 -243 39
-266 42 -266 39z"/>
<path d="M2663 9320 c72 -128 136 -373 158 -610 14 -146 6 -404 -16 -560 -25
-175 -29 -252 -15 -311 41 -171 176 -399 285 -480 46 -34 103 -39 128 -11 76
83 107 489 88 1112 -7 201 -14 390 -17 420 -12 118 -37 178 -109 258 -61 68
-141 115 -249 146 -80 24 -261 49 -253 36z"/>
<path d="M3402 4483 c5 -32 8 -110 6 -173 -4 -102 -8 -124 -37 -195 -41 -101
-122 -246 -224 -400 -92 -139 -176 -255 -185 -255 -3 0 -94 -11 -200 -26 -107
-14 -196 -24 -198 -22 -1 2 2 23 8 47 32 126 -56 293 -241 458 -234 209 -342
328 -409 451 l-39 73 -6 -83 c-22 -278 9 -591 70 -712 48 -95 162 -202 268
-252 28 -13 43 -24 35 -25 -8 0 -22 -2 -30 -3 -8 -2 -106 -14 -217 -26 l-201
-24 -144 37 c-78 20 -154 40 -167 43 -20 6 -9 -13 56 -92 99 -123 199 -223
230 -230 13 -4 53 1 90 10 175 42 853 150 853 135 0 -12 -110 -161 -184 -248
-63 -75 -254 -262 -275 -269 -4 -1 -31 13 -60 32 -29 20 -70 40 -91 46 -56 15
-120 20 -120 10 0 -5 8 -39 17 -77 16 -61 18 -133 18 -663 0 -528 2 -606 18
-690 24 -128 60 -199 153 -298 116 -126 186 -151 230 -85 12 18 25 53 28 78 4
25 10 45 14 45 4 0 34 5 67 10 259 43 492 56 722 40 l188 -13 58 -51 c114
-101 262 -171 312 -148 57 26 92 286 130 957 8 149 20 321 26 383 14 143 7
321 -16 384 -9 26 -32 61 -50 77 -70 61 -261 131 -360 131 -23 0 -67 -9 -98
-19 -67 -23 -735 -155 -723 -143 3 2 71 40 152 83 308 166 474 306 474 399 0
13 -16 37 -36 57 -21 19 -33 38 -28 43 10 9 199 26 404 36 88 4 174 1 290 -11
312 -32 370 -7 306 131 -67 144 -194 205 -351 169 -101 -23 -243 -52 -295 -59
l-44 -7 125 128 c165 169 247 286 264 376 14 71 -66 164 -245 286 -83 57 -327
201 -340 201 -4 0 -3 -26 2 -57z m-19 -1900 c-1 -16 -10 -170 -18 -343 -8
-173 -18 -356 -21 -406 l-6 -92 -67 51 c-75 57 -174 107 -211 107 -14 0 -43
-7 -65 -14 -37 -13 -475 -80 -480 -74 -1 2 -5 53 -9 114 l-7 112 33 5 c144 26
412 37 660 27 111 -4 129 -3 144 12 25 25 7 57 -63 112 -110 86 -219 125 -273
96 -15 -8 -309 -53 -481 -74 l-47 -5 -12 61 c-6 34 -24 96 -39 139 l-27 77 75
11 c42 7 222 29 401 51 179 22 359 43 400 48 121 15 117 16 113 -15z m-51
-1061 c-4 -137 -6 -153 -21 -146 -61 25 -148 27 -176 4 -24 -20 -304 -58 -549
-76 l-99 -7 6 30 c3 17 9 94 13 171 l7 140 36 6 c130 20 300 28 506 24 127 -3
241 -2 255 2 14 4 25 6 26 6 0 -1 -2 -70 -4 -154z"/>
<path d="M470 3680 c-58 -4 -124 -10 -148 -15 l-43 -7 58 -40 c32 -22 121
-102 198 -177 158 -155 236 -214 357 -270 197 -93 334 -116 383 -66 44 44 27
115 -68 273 -107 180 -176 241 -313 276 -54 14 -266 38 -304 34 -8 0 -62 -4
-120 -8z"/>
<path d="M1183 2744 c-15 -15 -56 -40 -92 -57 -66 -30 -377 -134 -526 -177
-44 -13 -84 -26 -88 -30 -12 -10 87 -40 175 -52 88 -13 214 0 306 31 62 21 70
37 -74 -141 -205 -254 -285 -387 -285 -472 0 -89 59 -228 131 -306 42 -45 67
-50 108 -20 68 51 290 102 347 80 25 -9 27 -14 22 -47 -7 -43 -83 -204 -197
-417 l-83 -155 -206 6 c-213 6 -397 -4 -586 -33 -103 -16 -147 -34 -83 -34 67
0 643 -101 748 -132 58 -16 310 -102 560 -190 1015 -357 1472 -499 1833 -567
144 -28 306 -28 413 -1 97 25 237 94 325 159 105 79 256 244 340 371 62 93
159 261 159 276 0 1 -29 -14 -65 -35 -157 -92 -485 -197 -740 -236 -165 -26
-440 -31 -615 -11 -305 35 -573 89 -1171 235 -300 73 -522 124 -661 151 l-57
11 142 121 c217 185 346 319 387 403 31 62 35 79 35 150 0 66 -5 90 -27 137
-34 74 -143 188 -179 188 -67 0 -223 -69 -359 -159 -86 -57 -83 -56 -72 -34
54 99 232 285 363 377 153 108 189 152 189 228 0 84 -37 138 -188 274 -147
133 -186 151 -229 108z"/>
</g>
</svg>
