<?xml version="1.0" encoding="UTF-8" standalone="no"?>
<svg
   xmlns:dc="http://purl.org/dc/elements/1.1/"
   xmlns:cc="http://creativecommons.org/ns#"
   xmlns:rdf="http://www.w3.org/1999/02/22-rdf-syntax-ns#"
   xmlns:svg="http://www.w3.org/2000/svg"
   xmlns="http://www.w3.org/2000/svg"
   version="1.1"
   id="svg2"
   viewBox="0 0 584.68546 669.29614"
   height="188.89024mm"
   width="165.01123mm">
  <defs
     id="defs4" />
  <metadata
     id="metadata7">
    <rdf:RDF>
      <cc:Work
         rdf:about="">
        <dc:format>image/svg+xml</dc:format>
        <dc:type
           rdf:resource="http://purl.org/dc/dcmitype/StillImage" />
        <dc:title></dc:title>
      </cc:Work>
    </rdf:RDF>
  </metadata>
  <g
     transform="translate(-73.149388,-194.02244)"
     id="layer1">
    <g
       id="text3336"
       style="font-style:normal;font-variant:normal;font-weight:normal;font-stretch:normal;font-size:301.85620117px;line-height:125%;font-family:KaiTi;-inkscape-font-specification:'KaiTi, Normal';text-align:start;letter-spacing:0px;word-spacing:0px;writing-mode:lr-tb;text-anchor:start;fill:#000000;fill-opacity:1;stroke:none;stroke-width:1px;stroke-linecap:butt;stroke-linejoin:miter;stroke-opacity:1">
      <path
         id="path3343"
         style=""
         d="m 231.75959,305.34971 q 16.50777,-4.71651 25.94077,-8.25388 10.61213,-3.53738 17.68689,3.53737 8.25388,5.89563 -4.7165,9.43301 -12.97039,2.35825 -36.5529,8.25388 4.7165,33.01552 17.68688,61.31454 14.14951,28.29902 31.8364,45.98591 18.86601,16.50776 27.11989,17.68688 9.43301,1.17913 12.97039,-7.07475 3.53737,-8.25388 8.25388,-25.94077 5.89563,-17.68689 3.53737,8.25388 -1.17912,24.76164 3.53738,42.44853 4.7165,18.86601 -14.14951,12.97038 -18.86601,-4.7165 -34.19465,-16.50776 -14.14951,-10.61213 -28.29901,-28.29902 -14.14951,-18.86601 -24.76165,-43.62765 -9.433,-24.76164 -17.68688,-63.67279 -20.04514,7.07475 -40.09028,12.97038 17.68689,5.89563 14.14951,11.79126 -2.35825,5.89563 -2.35825,17.68688 7.07475,-2.35825 12.97038,-5.89562 7.07476,-4.71651 12.97039,0 5.89562,3.53737 -2.35826,9.433 -8.25388,4.71651 -23.58251,5.89563 l 0,25.94077 q 23.58251,-7.07476 31.83639,-8.25388 8.25388,-1.17913 5.89563,2.35825 -1.17912,2.35825 -12.97038,7.07475 -10.61213,4.71651 -33.01552,14.14951 -22.40339,8.25388 -45.98591,17.68689 -23.58251,9.43301 -29.47814,15.32864 -4.71651,5.89562 -17.686889,-7.07476 -12.970384,-12.97038 0,-11.79126 12.970379,0 43.627649,-9.433 0,-8.25388 -1.17912,-24.76164 -1.17913,-16.50777 -7.07476,-23.58252 -4.7165,-7.07476 3.53738,-5.89563 8.25388,0 15.32864,3.53738 8.25388,3.53738 4.7165,10.61213 -2.35825,5.89563 -2.35825,34.19465 l 31.83639,-10.61213 q 0,-28.29902 -2.35825,-43.62766 -2.35825,-16.50776 -5.89563,-22.40339 -34.19464,9.43301 -42.44852,12.97039 -7.07476,3.53737 -16.50777,-2.35826 -8.25388,-5.89562 -8.25388,-7.07475 0,-2.35825 11.79126,-3.53738 11.79126,-1.17912 37.73203,-8.25388 27.11989,-7.07475 64.85192,-18.86601 -3.53738,-23.58252 -7.07476,-47.16503 -2.35825,-24.76164 -4.7165,-33.01552 -1.17913,-9.43301 -5.89563,-17.68689 -4.7165,-9.43301 2.35825,-7.07476 8.25388,1.17913 18.86601,5.89563 10.61213,4.71651 7.07476,11.79126 -2.35825,5.89563 -2.35825,27.11989 0,20.04514 5.89562,55.41892 z m -67.21016,-27.1199 q 12.97038,-4.7165 20.04513,-7.07475 7.07476,-2.35825 14.14951,2.35825 8.25388,4.7165 -2.35825,8.25388 -9.433,3.53738 -20.04514,8.25388 -10.61213,3.53738 -21.22426,4.7165 -9.43301,0 -16.50776,-3.53737 -5.89563,-4.71651 3.53738,-7.07476 9.433,-2.35825 22.40339,-5.89563 z m 100.22569,-21.22426 q -16.50776,-10.61213 -22.40339,-16.50776 -4.71651,-5.89563 5.89563,-5.89563 11.79125,-1.17913 23.58251,3.53738 11.79126,3.53737 10.61213,16.50776 0,11.79125 -17.68688,2.35825 z" />
      <path
         id="path3345"
         style=""
         d="m 505.31678,300.6332 q 18.86601,-7.07475 23.58251,-3.53737 5.89563,3.53737 2.35825,7.07475 -3.53737,3.53738 -27.11989,9.43301 l 0,16.50776 q 15.32864,4.7165 22.40339,9.433 8.25388,4.71651 10.61213,10.61214 2.35826,5.89562 0,12.97038 -1.17912,5.89563 -10.61213,-1.17913 -8.25388,-8.25388 -22.40339,-23.58251 l 0,49.52328 q 0,21.22426 -1.17912,30.65727 -1.17913,8.25388 -3.53738,11.79126 -2.35825,3.53738 -7.07476,-3.53738 -3.53737,-7.07475 -4.7165,-17.68689 0,-10.61213 2.35825,-17.68688 2.35825,-7.07476 2.35825,-48.34416 -12.97038,22.40339 -25.94076,36.5529 -11.79126,12.97038 -22.40339,18.86601 -9.43301,4.71651 1.17912,-8.25388 11.79126,-14.14951 24.76164,-35.37377 12.97039,-22.40339 18.86602,-36.5529 -17.68689,2.35825 -23.58252,0 -4.7165,-3.53738 4.7165,-5.89563 10.61214,-3.53738 22.40339,-8.25388 0,-47.16503 -1.17912,-58.95629 -1.17913,-11.79126 -7.07476,-20.04514 -4.7165,-9.433 5.89563,-7.07475 11.79126,2.35825 16.50776,7.07475 5.89563,3.53738 2.35825,11.79126 -3.53737,8.25388 -3.53737,63.67279 z m 75.46405,14.14951 q 12.97038,8.25388 10.61213,16.50776 -1.17913,8.25388 2.35825,53.06066 3.53738,43.62766 -2.35825,58.95629 -5.89563,15.32864 -10.61213,20.04514 -3.53738,5.89563 -9.43301,-3.53738 -4.7165,-8.25388 -16.50776,-18.86601 -11.79126,-10.61213 2.35825,-5.89563 15.32864,3.53738 18.86601,-3.53738 3.53738,-7.07475 3.53738,-33.01552 0,-25.94076 -1.17912,-41.2694 -1.17913,-16.50776 -4.71651,-25.94077 -2.35825,-9.433 -4.7165,-11.79125 -1.17913,-2.35826 -12.97038,0 -11.79126,1.17912 -17.68689,0 -4.7165,-1.17913 -9.43301,-3.53738 -3.53737,-3.53738 11.79126,-5.89563 16.50776,-2.35825 41.2694,-8.25388 25.94077,-5.89563 33.01553,-8.25388 7.07475,-2.35825 15.32863,0 9.43301,1.17912 12.97038,7.07475 3.53738,5.89563 -9.433,7.07476 -11.79126,0 -53.06066,7.07475 z M 431.03185,337.1861 q 9.43301,14.14951 8.25388,22.40339 -1.17912,8.25388 -2.35825,23.58252 0,15.32863 0,31.83639 0,15.32864 -5.89563,28.29902 -4.7165,11.79126 -9.433,2.35825 -3.53738,-10.61213 -4.71651,-17.68688 0,-7.07476 2.35825,-14.14951 3.53738,-7.07476 4.71651,-24.76164 1.17912,-17.68689 1.17912,-45.98591 -10.61213,12.97038 -20.04513,22.40339 -9.43301,8.25388 -23.58252,17.68689 -14.14951,8.25388 -2.35825,-3.53738 11.79126,-11.79126 22.40339,-24.76164 11.79126,-12.97038 22.40339,-28.29902 11.79126,-16.50776 15.32863,-24.76164 3.53738,-8.25388 3.53738,-15.32864 0,-8.25388 8.25388,0 9.43301,8.25388 10.61213,11.79126 1.17913,3.53738 -5.89563,10.61213 -7.07475,7.07476 -24.76164,28.29902 z m 20.04514,-116.73345 q 10.61213,4.7165 15.32864,10.61213 4.7165,4.7165 -1.17913,8.25388 -4.7165,2.35825 -11.79126,10.61213 -5.89563,8.25388 -17.68688,21.22427 -11.79126,12.97038 -21.22427,20.04514 -9.433,7.07475 -17.68689,10.61213 -7.07475,3.53738 4.71651,-8.25388 11.79126,-11.79126 21.22426,-25.94077 10.61213,-14.14951 15.32864,-23.58252 5.89563,-10.61213 4.7165,-18.86601 -1.17913,-9.433 8.25388,-4.7165 z m 147.39072,28.29902 q 9.43301,-2.35825 14.14951,4.7165 4.71651,5.89563 -11.79125,9.43301 -15.32864,2.35825 -23.58252,2.35825 -7.07475,0 -15.32864,-4.7165 -7.07475,-4.71651 2.35826,-5.89563 9.433,-1.17913 17.68688,-2.35825 8.25388,-2.35826 16.50776,-3.53738 z m -79.00142,3.53738 q 9.433,0 15.32863,3.53737 7.07476,3.53738 7.07476,14.14951 0,10.61213 -9.43301,4.71651 -9.43301,-5.89563 -16.50776,-14.14951 -5.89563,-9.43301 3.53738,-8.25388 z" />
      <path
         id="path3347"
         style=""
         d="m 231.75959,682.66996 q 16.50777,-4.71651 25.94077,-8.25388 10.61213,-3.53738 17.68689,3.53737 8.25388,5.89563 -4.7165,9.43301 -12.97039,2.35825 -36.5529,8.25388 4.7165,33.01552 17.68688,61.31454 14.14951,28.29902 31.8364,45.98591 18.86601,16.50776 27.11989,17.68688 9.43301,1.17913 12.97039,-7.07475 3.53737,-8.25388 8.25388,-25.94077 5.89563,-17.68688 3.53737,8.25388 -1.17912,24.76164 3.53738,42.44853 4.7165,18.86601 -14.14951,12.97038 -18.86601,-4.7165 -34.19465,-16.50776 -14.14951,-10.61213 -28.29901,-28.29902 -14.14951,-18.86601 -24.76165,-43.62765 -9.433,-24.76164 -17.68688,-63.67279 -20.04514,7.07475 -40.09028,12.97038 17.68689,5.89563 14.14951,11.79126 -2.35825,5.89563 -2.35825,17.68689 7.07475,-2.35826 12.97038,-5.89563 7.07476,-4.71651 12.97039,0 5.89562,3.53737 -2.35826,9.433 -8.25388,4.71651 -23.58251,5.89563 l 0,25.94077 q 23.58251,-7.07475 31.83639,-8.25388 8.25388,-1.17913 5.89563,2.35825 -1.17912,2.35825 -12.97038,7.07476 -10.61213,4.7165 -33.01552,14.14951 -22.40339,8.25388 -45.98591,17.68688 -23.58251,9.43301 -29.47814,15.32864 -4.71651,5.89563 -17.686889,-7.07476 -12.970384,-12.97038 0,-11.79126 12.970379,0 43.627649,-9.433 0,-8.25388 -1.17912,-24.76164 -1.17913,-16.50776 -7.07476,-23.58252 -4.7165,-7.07475 3.53738,-5.89563 8.25388,0 15.32864,3.53738 8.25388,3.53738 4.7165,10.61213 -2.35825,5.89563 -2.35825,34.19465 l 31.83639,-10.61213 q 0,-28.29902 -2.35825,-43.62766 -2.35825,-16.50776 -5.89563,-22.40339 -34.19464,9.43301 -42.44852,12.97039 -7.07476,3.53737 -16.50777,-2.35825 -8.25388,-5.89563 -8.25388,-7.07476 0,-2.35825 11.79126,-3.53738 11.79126,-1.17912 37.73203,-8.25388 27.11989,-7.07475 64.85192,-18.86601 -3.53738,-23.58252 -7.07476,-47.16503 -2.35825,-24.76164 -4.7165,-33.01552 -1.17913,-9.43301 -5.89563,-17.68689 -4.7165,-9.43301 2.35825,-7.07475 8.25388,1.17912 18.86601,5.89562 10.61213,4.71651 7.07476,11.79126 -2.35825,5.89563 -2.35825,27.1199 0,20.04513 5.89562,55.41891 z m -67.21016,-27.1199 q 12.97038,-4.7165 20.04513,-7.07475 7.07476,-2.35825 14.14951,2.35825 8.25388,4.7165 -2.35825,8.25388 -9.433,3.53738 -20.04514,8.25388 -10.61213,3.53738 -21.22426,4.71651 -9.43301,0 -16.50776,-3.53738 -5.89563,-4.71651 3.53738,-7.07476 9.433,-2.35825 22.40339,-5.89563 z M 264.77512,634.3258 q -16.50776,-10.61213 -22.40339,-16.50776 -4.71651,-5.89563 5.89563,-5.89563 11.79125,-1.17913 23.58251,3.53738 11.79126,3.53737 10.61213,16.50776 0,11.79126 -17.68688,2.35825 z" />
      <path
         id="path3349"
         style=""
         d="m 500.60027,670.8787 q 29.47815,-7.07476 40.09028,-9.43301 11.79126,-3.53737 23.58252,0 12.97038,3.53738 2.35825,10.61214 -10.61213,5.89562 -66.03105,15.32863 l 0,10.61213 q 14.14951,12.97039 44.80678,37.73203 30.65727,23.58251 47.16504,30.65727 16.50776,7.07475 38.91115,12.97038 23.58251,5.89563 11.79125,9.43301 -11.79125,2.35825 -43.62765,3.53738 -30.65727,0 -41.2694,-15.32864 -10.61213,-16.50776 -57.77717,-63.67279 0,25.94076 0,53.06066 1.17913,25.94077 0,47.16503 -1.17912,20.04514 -4.7165,28.29902 -2.35825,9.433 -9.43301,-8.25388 -7.07475,-16.50776 -5.89562,-28.29902 2.35825,-11.79126 3.53737,-34.19465 2.35825,-23.58251 1.17913,-67.21017 -20.04514,37.73203 -50.70241,63.67279 -30.65727,25.94077 -45.98591,33.01553 -14.1495,5.89562 5.89563,-11.79126 20.04514,-17.68689 42.44853,-42.44853 22.40339,-25.94077 37.73203,-54.23979 -27.1199,5.89563 -37.73203,5.89563 -9.433,0 -20.04514,-4.7165 -10.61213,-4.7165 3.53738,-5.89563 14.14951,-2.35825 30.65727,-4.7165 17.68689,-3.53738 34.19465,-8.25388 -1.17913,-22.40339 -2.35825,-41.26941 0,-20.04513 -7.07476,-30.65727 -5.89563,-11.79125 -3.53737,-12.97038 2.35825,-2.35825 18.86601,4.7165 17.68688,7.07476 14.14951,15.32864 -3.53738,7.07475 -4.71651,61.31454 z m 58.95629,-60.13542 q 21.22427,2.35826 22.40339,17.68689 2.35825,15.32864 -15.32863,4.7165 -16.50776,-10.61213 -22.40339,-17.68688 -5.89563,-7.07476 15.32863,-4.71651 z" />
    </g>
  </g>
</svg>
