<svg xmlns="http://www.w3.org/2000/svg" data-name="1" viewBox="0 0 128 128" id="location-marker"><path fill="#333033" d="M107.35 43.35C107.35 88.77 64 128 64 128S20.65 88.77 20.65 43.35a43.35 43.35 0 1 1 86.71 0Z"></path><path fill="#fff" d="M94.79 40h-5.6a25.62 25.62 0 0 0-22.4-22.4V12h-6v5.6A25.62 25.62 0 0 0 38.39 40h-5.6v6h5.6a25.62 25.62 0 0 0 22.4 22.4V74h6v-5.6A25.62 25.62 0 0 0 89.19 46h5.6Zm-28 22.33v-5.17h-6v5.16A19.59 19.59 0 0 1 44.46 46h5.16v-6h-5.16a19.59 19.59 0 0 1 16.33-16.33v5.16h6v-5.16A19.59 19.59 0 0 1 83.11 40H78.4v6h4.71a19.59 19.59 0 0 1-16.32 16.33Z"></path></svg>